<?xml version="1.0" encoding="utf-8"?>
<!-- Generator: Adobe Illustrator 26.5.0, SVG Export Plug-In . SVG Version: 6.00 Build 0)  -->
<svg version="1.1" xmlns="http://www.w3.org/2000/svg" xmlns:xlink="http://www.w3.org/1999/xlink" x="0px" y="0px"
	 viewBox="0 0 181.5 180.3" style="enable-background:new 0 0 181.5 180.3;" xml:space="preserve">
<style type="text/css">
	.st0{fill:#0069A0;}
	.st1{fill:#154373;}
	.st2{fill:#FFFFFF;}
</style>
<g id="Layer_1">
</g>
<g id="Isolation_Mode">
	<g>
		<rect class="st0" width="181.5" height="180.3"/>
		<g>
			<rect x="39" class="st1" width="103.5" height="150"/>
			<path class="st2" d="M92.7,108.3h-1.9v-5.4h1.9V108.3z M101.5,84.5h-1.9v-5.4h1.9V84.5z M65.4,75.2c-0.2,0-1.2,0-1.2,0.2
				s0.5,0.1,1.2,0.2c1.6,0.3,2.2,1.1,3.3,1.1c1,0,2-0.7,1.6-2.1c-0.1-0.2-0.2-0.2-0.2,0c-0.2,0.6-0.9,1-1.8,1
				C67.2,75.5,67,75.2,65.4,75.2z M54.7,80.6c0.2,0.2,2,2.6-0.8,3.5c-0.1,0-0.2,0.2,0,0.2c2.1,0.9,3.1-0.7,3.1-0.7
				c1.1,2.4-0.6,3.7-0.6,3.7c0.2,0.4,1.2,1.2,2.7,1.5c0.6-0.3,1.4-0.9,1.7-1.8c0,0,0.4,1.1,0,2.1c4.3,0.4,5.8-3,9.1-2.4
				c0.1,0,0.1,0,0.1-0.1c0-2.1-1.3-5.9-5.4-6.7c-4.1-0.8-3-2.4-3-2.4c1.7-0.1,2.7,0.7,2.7,0.7c0.3-0.5-0.1-1.1-0.1-1.1
				c0.2-0.2,0.2-0.9,0.2-0.9c-1.9,0-2.4-0.4-2.4-0.4c-0.3-1.1,0.5-2.8,3.4-1c0.7-0.6,0.6-1.6,0.6-1.6c0.2-0.1,0.4-0.4,0.4-0.6
				c0-0.5-2.3-1.7-2.9-1.9c-0.1-0.7-1-1.7-3.7-1.3c-1.3,0.2-2.2-0.2-1.8-0.9c0.1-0.1-0.2-0.2-0.3,0c-0.3,0.3-0.7,1.1,0.4,1.7
				c1.2,0.6,1.3,1.9,1.3,2c0,0.3-0.3,0.3-0.4,0c-0.6-2.1-3.4-2.5-5.1-1.4c0.1,1.1,1.3,1.9,1.9,1.9c0.4,0,0.9-0.4,0.9-0.9
				c0-0.2,0.1-0.2,0.2,0c0.3,0.7-0.8,2.3-2.4,1.3c-1.7,1.7-1,3.7-0.8,4.5c0.3,1.3-0.4,2.7-1.6,2.1c-0.1,0-0.1,0-0.1,0.1
				C52.3,80.3,53.3,81.3,54.7,80.6z M63.8,72.2c-0.8,0.9-2,0.7-2.4-0.8C63.1,71.3,63.7,71.5,63.8,72.2z M113.3,75.5
				c-0.8,0-1.6-0.4-1.8-1c0-0.2-0.2-0.2-0.2,0c-0.4,1.4,0.6,2.1,1.6,2.1c1.1,0,1.7-0.8,3.3-1.1c0.7-0.1,1.2,0,1.2-0.2
				c0-0.2-1-0.2-1.2-0.2C114.5,75.2,114.3,75.5,113.3,75.5z M129.3,79.5c0-0.1-0.1-0.1-0.1-0.1c-1.2,0.6-1.9-0.7-1.6-2.1
				c0.2-0.8,0.8-2.8-0.8-4.5c-1.6,0.9-2.7-0.6-2.4-1.3c0.1-0.2,0.2-0.2,0.2,0c0,0.5,0.5,0.9,0.9,0.9c0.6,0,1.9-0.7,1.9-1.9
				c-1.7-1.1-4.5-0.6-5.1,1.4c-0.1,0.3-0.4,0.2-0.4,0c0-0.2,0.1-1.4,1.3-2c1.1-0.6,0.7-1.4,0.4-1.7c-0.1-0.1-0.4-0.1-0.3,0
				c0.4,0.7-0.5,1.1-1.7,0.9c-2.7-0.4-3.6,0.6-3.7,1.3c-0.6,0.2-2.9,1.4-2.9,1.9c0,0.1,0.1,0.5,0.4,0.6c0,0,0,1,0.6,1.6
				c2.8-1.7,3.7-0.1,3.4,1c0,0-0.5,0.4-2.4,0.4c0,0,0.1,0.7,0.2,0.9c0,0-0.4,0.6-0.1,1.1c0,0,1-0.7,2.7-0.7c0,0,1.1,1.7-3,2.4
				c-4.1,0.8-5.4,4.6-5.4,6.7c0,0.1,0,0.2,0.1,0.1c3.3-0.6,4.8,2.8,9.1,2.4c-0.4-1,0-2.1,0-2.1c0.3,0.9,1.1,1.5,1.7,1.8
				c1.5-0.3,2.5-1.1,2.7-1.5c0,0-1.6-1.3-0.6-3.7c0,0,1,1.6,3.1,0.7c0.2-0.1,0.1-0.2,0-0.2c-2.8-0.9-1-3.3-0.8-3.5
				C128.2,81.3,129.3,80.3,129.3,79.5z M120.1,71.4c-0.3,1.4-1.6,1.6-2.4,0.8C117.8,71.5,118.5,71.3,120.1,71.4z M90,47.5
				c0,0.4,0.2,0.7,0.3,0.9c0.2,0.4,0.2,0.6,0.1,0.7c-0.1,0.1-0.3,0.2-0.7-0.1c-0.2-0.1-0.5-0.3-0.9-0.3c-0.6,0-0.9,0.4-0.9,0.7
				c0,0.3,0.3,0.7,0.9,0.7c0.4,0,0.7-0.2,0.9-0.3c0.4-0.2,0.6-0.2,0.7-0.1c0.1,0.1,0,1.3-0.2,2.3c-1,0.2-1.5,1-1.5,1.5
				c0,1.2,1.3,1.9,2.1,2.4c0.8-0.4,2.1-1.1,2.1-2.4c0-0.5-0.5-1.3-1.5-1.5c-0.1-1-0.3-2.2-0.2-2.3c0.1-0.1,0.3-0.2,0.7,0.1
				c0.2,0.1,0.5,0.3,0.9,0.3c0.6,0,0.9-0.4,0.9-0.7c0-0.3-0.3-0.7-0.9-0.7c-0.4,0-0.7,0.2-0.9,0.3c-0.4,0.2-0.6,0.2-0.7,0.1
				c-0.1-0.1-0.2-0.3,0.1-0.7c0.1-0.2,0.3-0.5,0.3-0.9c0-0.6-0.4-0.9-0.7-0.9C90.4,46.6,90,46.9,90,47.5z M90.8,56.6
				c-0.8,0-1.5,0.7-1.5,1.5c0,0.8,0.7,1.5,1.5,1.5c0.8,0,1.5-0.7,1.5-1.5C92.3,57.3,91.6,56.6,90.8,56.6z M90.8,70.9
				c6,0,9.3,1.1,9.3,1.1c0-3,0-4.7,1.7-4.5c-0.9-2.5,3.1-3.5,3.1-6.8c0-2.2-1.5-2.4-2-2.4c-1.3,0-1.1,0.9-2.3,0.9
				c-0.1,0-0.3,0-0.3,0.1c0,0.4,0.3,1,0.9,1c0.7,0,0.7-0.7,1.3-0.7c0.2,0,0.6,0.2,0.6,0.9c0,1.4-0.9,3-2,4.2c-0.2-0.3-0.6-0.6-1-0.6
				c-0.6,0-1.2,0.7-1.2,1.5c0,0.3,0,0.5,0.2,0.8c-0.4,0.2-0.7,0.3-0.9,0.3c-0.5,0-1.2-0.2-1.2-1.3c0-2.4,3.2-4.5,3.2-7.6
				c0-1.5-1-2.9-3-2.9c-2.2,0-1.8,2-3.7,2c-0.1,0-0.2,0-0.2,0.1c0,0.1,0.3,1.2,1.3,1.2c1,0,1.3-1.8,2.3-1.8c0.3,0,0.9,0.2,0.9,1.4
				c0,0.9-0.5,2.5-1.1,3.9c-0.2-0.2-0.6-0.4-0.9-0.4c-0.8,0-1.4,0.8-1.4,1.7c0,0.6,0.2,1.2,0.6,1.5c-0.5,0.6-1,1.1-1.6,1.1
				c-1.3,0-1.9-0.7-1.9-1.5c0-0.9,1.6-1.2,1.6-2.5c0-0.9-0.6-1.4-1.2-1.4c-0.6,0-0.9,0.4-1,0.4s-0.4-0.4-1-0.4
				c-0.6,0-1.2,0.5-1.2,1.4c0,1.3,1.6,1.7,1.6,2.5c0,0.8-0.6,1.5-1.9,1.5c-0.6,0-1.1-0.5-1.6-1.1c0.4-0.4,0.6-0.9,0.6-1.5
				c0-0.9-0.6-1.7-1.4-1.7c-0.4,0-0.7,0.2-0.9,0.4c-0.7-1.5-1.1-3-1.1-3.9c0-1.2,0.5-1.4,0.9-1.4c0.9,0,1.2,1.8,2.3,1.8
				c1,0,1.3-1.1,1.3-1.2c0-0.1-0.1-0.1-0.2-0.1c-1.9,0-1.5-2-3.7-2c-2,0-3,1.4-3,2.9c0,3,3.2,5.2,3.2,7.6c0,1.1-0.7,1.3-1.2,1.3
				c-0.2,0-0.6-0.1-0.9-0.3c0.1-0.3,0.2-0.5,0.2-0.8c0-0.8-0.6-1.5-1.2-1.5c-0.4,0-0.7,0.2-1,0.6c-1.1-1.2-2-2.8-2-4.2
				c0-0.7,0.3-0.9,0.6-0.9c0.5,0,0.5,0.7,1.3,0.7c0.5,0,0.9-0.6,0.9-1c0-0.1-0.2-0.1-0.3-0.1c-1.1,0-0.9-0.9-2.3-0.9
				c-0.4,0-2,0.2-2,2.4c0,3.3,4.1,4.3,3.1,6.8c1.7-0.2,1.7,1.4,1.7,4.5C81.4,72.1,84.8,70.9,90.8,70.9z M79.8,75.4
				c-1.6,0.4-2.8,0.7-3.3,0.9c0-0.7,0.3-1.4,0.9-1.5c0.1,0,0.1-0.1,0-0.2c-1.5-1-2.2,0.9-2.2,0.9c-0.5,0-1.3,0.1-1.3,0.8
				c0,2.1-4.7,3.2-5.8,3.4c1.9,0.7,2.8,3.2,2.8,3.2c1.4-1.4,3-2.6,3.4-2.6c0.4,0,0.5,0.5,0.5,0.7c0,0.1,0.1,0.1,0.2,0
				c0.7-1.1,0.4-1.3,0.3-1.7c0-0.2,0-1.2,1.1-1.1v13.9l-0.6,0.1c-0.2,0-2.3-1.7-4.6-3.3c-2.3-1.6-3.6-0.6-6.2,0.8
				c-3.5,1.9-7,0.2-7,0.2c-3,2.1-4,8.3-4,8.3c-0.6,0.2-1.6,0.5-2.5,0.5c-2.3,0-2.7-1.4-2.7-2.2c0-3.5,4.4-5,4.4-8.5
				c0-0.9-0.4-4.3-4.6-4.3c-0.5,0-3.8,0-3.8,0c-1.6,0-2-1.1-2.2-1.6c-0.1-0.2-0.2-0.1-0.2,0.1c0.1,0.3-0.2,0.7-0.2,1.6
				c0,1.4,0.8,2.3,2.4,2.3c0.7,0,1.4-0.2,1.6-0.3c0.1-0.1,0.2,0,0.2,0.1c-0.7,0.8-0.7,2.3-0.4,2.6c0.1,0.1,0.2,0.1,0.2,0
				c0.4-1.5,1.8-2.9,3.7-2.9c2.3,0,2.3,1.9,2.3,2.4c0,2.8-5,4.9-5,8.8c0,3.9,4.2,4.8,6.6,4.2c-0.1,3.9-4.7,5.3-4.8,2.5
				c0-0.1-0.1-0.2-0.2,0c-0.6,1.4-0.3,2.6,1.4,3c0.1,0,0.1,0.1,0,0.2c-1.7,1.1-0.8,5.4-0.7,6.7c0.1,1.8-1.7,1.6-1.9,1.6
				c-0.1,0-0.2,0,0,0.2c1.3,1.6,2.9,0.1,2.9,0.1c1.2,0.4,0.5,1.4-0.4,1.9c-0.1,0.1-0.1,0.2,0,0.2c0.2,0,2.1,0.2,2.4-1.3
				c0.8,1,2.1,0.6,2.3,0.5c0.4-0.2,2.1-0.8,2.3,1.1c0,0.1,0.1,0,0.2,0c1.3-1.7-0.1-2.7-0.9-2.8c0.1-0.1,1.1-1,2.1,0.2
				c0.1,0.1,0.1,0.1,0.1-0.1c0.1-2.1-1.6-2.3-2.7-1.4c0-0.2-0.4-1.4,1.3-1.4c0,0,0.1-0.1,0-0.1c-1.3-1.4-2.4-0.1-2.6,0.2
				c-0.6,0.7-2,0.4-2.2,0.4c0.4-7.4,6.9-4.7,7.8-8.3c0-0.2,0.1-0.1,0.1,0c0.2,0.9,2.4,1,2.8-0.7c0-0.1,0-0.2-0.1-0.1
				c-1.9,1.9-6.1-4-0.3-8.8c4.9-4.1,9.3-1.8,11-0.5c0.1,0.6-0.3,0.8-0.5,0.9c-0.1,0-0.1,0.1,0,0.2c0.5,0.2,1.1,0.1,1.4-0.3
				c1.1,0.7,0.2,1.7-0.3,1.9c-0.1,0.1-0.1,0.1,0,0.2c1,0.2,1.8-0.8,1.8-1.4l0.2,0.1v4.2c0,6,6.9,6.8,14.4,11.8
				c7.6-5.1,14.4-5.9,14.4-11.8v-4.2l0.2-0.1c0,0.6,0.8,1.6,1.8,1.4c0.1,0,0.1-0.1,0-0.2c-0.4-0.3-1.3-1.2-0.3-1.9
				c0.3,0.4,1,0.5,1.4,0.3c0.1,0,0.1-0.1,0-0.2c-0.2-0.1-0.6-0.3-0.5-0.9c1.7-1.3,6.1-3.6,11,0.5c5.8,4.8,1.5,10.6-0.3,8.8
				c-0.1-0.1-0.1,0-0.1,0.1c0.4,1.7,2.6,1.6,2.8,0.7c0-0.1,0.1-0.1,0.1,0c0.9,3.6,7.4,1,7.8,8.3c-0.1,0-1.6,0.3-2.2-0.4
				c-0.2-0.3-1.3-1.6-2.6-0.2c-0.1,0.1,0,0.1,0,0.1c1.7,0,1.3,1.1,1.3,1.4c-1.1-0.9-2.8-0.7-2.7,1.4c0,0.2,0.1,0.2,0.1,0.1
				c1-1.2,2-0.3,2.1-0.2c-0.8,0.1-2.2,1.1-0.9,2.8c0.1,0.1,0.1,0.2,0.2,0c0.2-2,1.9-1.3,2.3-1.1c0.2,0.1,1.5,0.5,2.3-0.5
				c0.3,1.5,2.2,1.3,2.4,1.3c0.1,0,0.1-0.1,0-0.2c-0.8-0.5-1.6-1.6-0.4-1.9c0,0,1.6,1.5,2.9-0.1c0.1-0.1,0-0.2,0-0.2
				c-0.2,0-2,0.3-1.9-1.6c0.1-1.3,1-5.6-0.7-6.7c-0.1-0.1-0.2-0.1,0-0.2c1.7-0.4,2-1.6,1.4-3c-0.1-0.2-0.2-0.1-0.2,0
				c-0.1,2.8-4.6,1.5-4.8-2.5c2.4,0.6,6.6-0.2,6.6-4.2c0-3.9-5-6-5-8.8c0-0.5,0-2.4,2.3-2.4c1.9,0,3.3,1.4,3.7,2.9
				c0,0.1,0.1,0.1,0.2,0c0.3-0.4,0.2-1.8-0.4-2.6c-0.1-0.1,0-0.2,0.2-0.1c0.2,0.1,0.9,0.3,1.6,0.3c1.5,0,2.4-0.9,2.4-2.3
				c0-0.9-0.3-1.3-0.2-1.6c0.1-0.1-0.1-0.2-0.2-0.1c-0.2,0.4-0.6,1.6-2.2,1.6c0,0-3.2,0-3.8,0c-4.2,0-4.6,3.4-4.6,4.3
				c0,3.5,4.4,5,4.4,8.5c0,0.8-0.4,2.2-2.7,2.2c-0.9,0-1.9-0.3-2.5-0.5c0,0-1-6.2-4-8.3c0,0-3.5,1.7-7-0.2c-2.6-1.4-3.9-2.4-6.2-0.8
				c-2.3,1.6-4.3,3.3-4.6,3.3l-0.6-0.1V78.3c1.1-0.1,1.1,0.9,1.1,1.1c-0.1,0.3-0.4,0.6,0.3,1.7c0.1,0.1,0.1,0,0.2,0
				c0-0.3,0.2-0.7,0.5-0.7c0.4,0,2,1.2,3.4,2.6c0,0,0.8-2.4,2.8-3.2c-1.1-0.2-5.8-1.3-5.8-3.4c0-0.7-0.8-0.9-1.3-0.8
				c0-0.1-0.8-1.9-2.2-0.9c-0.1,0-0.1,0.2,0,0.2c0.6,0.2,0.9,0.8,0.9,1.5c-1.4-0.4-7.3-2.1-14.3-2.1c-3.4,0-6.5,0.4-9,0.9v4.8h-1.9
				V75.4L79.8,75.4 M66.9,124.6c-0.5-0.2-0.9-0.5-0.9-1.2v-3c-0.9-0.3-3.2-1.2-7.9-1.2c-3.9,0-5.1,0.9-5.2,1.2l-1,5.7
				c0,0,1.6-1.4,7.2-1.1c6.8,0.4,13.8,4.4,13.8,0.2v-2.5C67.7,122.7,66.9,124.4,66.9,124.6z M108.6,122.7v2.5c0,4.3,7,0.3,13.8-0.2
				c5.6-0.4,7.2,1.1,7.2,1.1l-1-5.7c0-0.3-1.3-1.2-5.2-1.2c-4.7,0-7,0.9-7.9,1.2v3c0,0.7-0.3,1-0.9,1.2
				C114.6,124.4,113.9,122.7,108.6,122.7z M90.8,120.1c10.9,0,22,0.6,23.4,2.2c0.1,0.1,0.2,0,0.2-0.1v-5.8c0-1.7-11.4-2.7-23.6-2.7
				s-23.6,1-23.6,2.7v5.8c0,0.1,0,0.2,0.2,0.1C68.8,120.7,79.9,120.1,90.8,120.1z M81,92.9l-1.1-0.3l-0.1,0.1l-1.3-0.6
				c0,0,0.9,0,1.1,0c0.1,0,0.1-0.1,0.1-0.1c-0.5-0.5-1-1-1-1s0.5,0.2,1.3,0.5c0.1,0,0.1,0,0.1-0.1c-0.4-0.5-0.9-1.2-0.9-1.2
				s1,0.7,1.2,0.8c0.1,0,0.1,0,0.1-0.1c-0.3-0.7-0.6-1.5-0.6-1.5l1.1,1.1c0,0,0.1,0,0.1,0c-0.1-0.5-0.3-1.5-0.3-1.5l0.8,1.2
				c0,0.1,0.1,0,0.1,0c0-0.2,0-1.3,0-1.3s0.4,0.8,0.5,1.2c0,0.1,0.1,0.1,0.1,0c0-0.1,0.4-1,0.4-1l0,1.4l-0.2,0l-0.2,1.7
				c1.6-0.4,3.7-3.2,5.3-3.2c1.9,0,2.6,2.2,6,1.1c0.9,1.3,1.2,2.4,1.5,4c1.3,1.3,3.2,0.8,3.2-0.5c0-1.8-1.9-2.1-1.9-4
				c0-0.8,0.6-2,2.2-2c0.9,0,2.1,0.4,2.8,0.4c0.9,0,1-0.6,1.1-0.9c0.1-0.2,0.3-0.1,0.3,0c0,0.2,0.1,0.4,0.1,0.8
				c0,1.2-1.7,1.3-1.9,1.2c-0.1-0.1-0.2,0-0.1,0.1c0.3,0.2,0.2,0.9-0.1,1.4c0,0-0.1,0-0.1,0c-0.2-0.9-1.2-1.9-2.1-1.9
				c-0.3,0-1,0.2-1,0.9c0,1.1,2.1,2,2.1,4.2c0,2.3-2.3,2.8-4.5,2.3c0.1,2.2,3.3,3.5,3.4,1.9c0-0.1,0.1,0,0.1,0
				c0.5,0.7,0.3,1.2-0.4,1.4c0.6,0.2,0.7,1.4,0.8,2.1c0.2,1,1.3,0.4,1.4,0.4c0.1,0,0.1,0,0,0.1c-0.4,1.1-1.5,0.6-1.5,0.6
				c-0.6,0.4,0.1,0.8,0.6,0.9c0.1,0,0.1,0.1,0,0.1c-0.4,0.1-1.2,0.4-1.6-0.3c-0.3,0.7-0.9,0.7-1.1,0.7c-0.4,0-0.7,0.4-0.6,1
				c0,0,0,0.1-0.1,0c-1-0.6-0.4-1.4,0-1.6c-0.1,0-0.8-0.3-1.1,0.5c0,0.1-0.1,0.1-0.1,0c-0.4-1.2,0.5-1.5,1.2-1.2
				c0-0.2-0.4-0.7-1.3-0.5c0,0-0.1,0,0-0.1c0.2-0.4,0.6-0.9,1.4-0.4c0.4,0.3,1.1-0.1,1.2-0.2c-1.5-2.9-4.3-0.5-4.9-2.7
				c0,0-0.1-0.1-0.1,0c-0.2,0.5-1.4,0.5-1.6-0.4c0-0.1,0-0.1,0.1,0c0.2,0.2,0.6,0.3,1.1-0.4c0.3-0.5,0.4-1.1,0.4-1.6
				c0-1.7-1.7-4.7-4.5-4.7c-1.7,0-3.6,0.7-5,1.7l1.3,0.3c-0.1,1.3-1.4,2.1-2.5,1.7l0.2-1.5c-0.2,0.1-0.7,0.2-1,0.6c0,0-0.1,0-0.1,0
				c-0.2-0.9,0.5-1.3,0.7-1.4c0,0,0,0,0,0c-0.6,0-1,0.4-1.1,0.6c0,0,0,0,0,0C80.9,93.6,80.7,93.2,81,92.9z M84.9,102.9
				c-0.5,0.6-0.9,0-1.6,0c-0.6,0-0.7,0.5-0.7,0.7c0,0,0,0,0,0c-0.7-0.9,0.1-1.5,0.5-1.5c-0.1-0.1-0.7-0.5-1.2,0.1c0,0-0.1,0-0.1,0
				c0-1.2,0.9-1.3,1.5-0.7c0.1-0.4-0.2-0.7-0.7-0.8c-0.1,0-0.1,0,0-0.1c0.2-0.2,0.4-0.3,0.6-0.3c0.6,0,0.7,0.8,1.2,0.8
				c0.6,0,1.5-0.9,1.6-0.9c0,0-0.6-1.7-0.5-2.7c0,0,0,0,0,0c-0.3,0.2-1.1,0.2-1.1-0.8c0-0.1,0-0.1,0.1,0c0.3,0.5,0.9-0.1,1.2-0.4
				c0.3-0.3,1.9-2.7,4-2.7c0.5,0,1.1,0.3,1.6,0.6c-0.7,0.9,0,1.7,0.5,1.6c0.1,0,0.1,0,0,0.1c-2.8,1.1-4.1,1.5-4.1,3.9
				c0,1.2,0.4,1.9,1.1,1.7c0,0,0.1,0,0,0c-0.3,0.3-0.6,0.4-0.8,0.4c-0.6,0-0.7-0.3-1-0.3s-1.4,0.6-1.4,1.1c0,0.2,0.1,0.5,0.5,0.7
				c0,0,0,0,0,0C85.9,103.6,85,103.7,84.9,102.9z M92.3,80c-0.9,0-1.5,0.1-1.4,0.4C91.3,80.8,91.9,80.8,92.3,80z M89,82.1
				c0.6-0.2,1.3-0.1,1.4-0.1c0.1,0,0.1,0.2,0,0.2C89.1,82.4,89,83,88.2,83c-0.5,0-1.1-0.6-0.9-1.4c0-0.1,0.1-0.1,0.1,0
				C87.5,82,88,82.4,89,82.1z M72.2,110.9C73,112,73.8,111,75,111c0.6,0,1.2,0.2,1.3,1.3c0,0.1,0,0.1,0.1,0c1.2-1.7-0.2-2.6-1-2.8
				c0.2-0.2,1.4-0.9,2.2,0.2c0,0.1,0.1,0,0.1,0c0-2.1-1.6-2.3-2.8-1.4c-0.2-0.8,0.4-1.4,1.2-1.4c0.1,0,0.1-0.1,0.1-0.1
				c-1.4-1.5-2.5,0.4-2.7,0.7c-0.6,0.8-2.6-0.7-3.4-1.5c0,0,1.8-1.9,1.8-3.6c0-0.1,0-0.2,0-0.3c0,0,0-0.1,0.1,0
				c0.2,0.1,0.4,0.2,0.7,0.2c0.4,0,1.2-0.1,1.2-1.6c0-0.1,0-0.1-0.1,0c-0.2,0.3-0.4,0.4-0.6,0.4c-1.5,0-4.5-4.8-8.1-4.8
				c-0.9,0-2.7,0.7-3.6,1.6c0.4,0.2,0.5,0.8,0.5,1.2c-0.1,0.6-0.6,0.9-1.1,1.1c-0.1,0-0.1,0.1,0,0.1c1.8,0.7,5.1,1.9,5.8,2.6
				c0.9,0.8,0.7,2.2,0.2,4.2c-0.5,1.9-1.5,1.7-1.9,1.6c-0.1,0-0.1,0,0,0.1c0.5,0.6,1,0.8,1.5,0.8c0.9,0,1.3-0.6,1.8-0.6
				c0.8,0,2.5,1.2,2.5,2.1c0,0.5-0.4,1-0.9,1.3c0,0,0,0.1,0,0.1C70.3,112.2,71.9,112.4,72.2,110.9z M111.7,112.2
				C111.7,112.2,111.7,112.1,111.7,112.2c-0.5-0.4-0.9-0.9-0.9-1.3c0-0.9,1.7-2.1,2.5-2.1c0.5,0,0.8,0.6,1.8,0.6
				c0.5,0,1.1-0.2,1.5-0.8c0,0,0-0.1,0-0.1c-0.4,0.1-1.5,0.3-1.9-1.6c-0.5-2-0.7-3.4,0.2-4.2c0.7-0.6,4-1.9,5.8-2.6
				c0.1,0,0.1-0.1,0-0.1c-0.5-0.1-1-0.4-1.1-1.1c0-0.4,0-0.9,0.5-1.2c-0.9-1-2.7-1.6-3.6-1.6c-3.6,0-6.6,4.8-8.1,4.8
				c-0.2,0-0.4-0.1-0.6-0.4c0-0.1-0.1-0.1-0.1,0c0,1.5,0.8,1.6,1.2,1.6c0.2,0,0.5-0.1,0.7-0.2c0,0,0.1,0,0.1,0c0,0.1,0,0.2,0,0.3
				c0,1.7,1.8,3.6,1.8,3.6c-0.8,0.9-2.8,2.3-3.4,1.5c-0.2-0.3-1.3-2.2-2.7-0.7c0,0.1,0,0.1,0.1,0.1c0.8,0,1.4,0.5,1.2,1.4
				c-1.2-0.9-2.8-0.8-2.8,1.4c0,0.1,0.1,0.1,0.1,0c0.8-1.1,2-0.4,2.1-0.2c-0.8,0.1-2.2,1.1-1,2.8c0,0.1,0.1,0.1,0.1,0
				c0.1-1.1,0.8-1.3,1.3-1.3c1.1,0,1.9,1,2.8-0.1C109.7,112.4,111.3,112.2,111.7,112.2z M82.7,84.2c-0.1,0.2-0.5,0-0.6-0.1
				c0,0,0,0,0,0c0.1,0.2,0.4,0.8,1,0.8c0.2,0,0.6-0.1,0.7-0.3c0,0,2.1,0.7,3.1,1c-0.4,0.5-0.6,1.2-0.7,1.9C85.4,87,82,85.2,82,85.2
				l-1,1.4c-0.2,0.2-1-0.4-0.8-0.6l0.8-1.1c-0.3-0.3-0.9-0.1-1.1,0c0,0,0,0,0,0c0.1-0.2,0.5-0.9,1.5-0.6c0-0.6-0.9-0.4-1.1-0.3
				c0,0,0,0,0,0c0.2-0.3,1-0.9,1.8-0.4l0.4-0.5l-0.7-0.8l0.4-0.6l0.5,0.7l3.9-5.3c0.1-0.1,0.9-0.4,1.1-0.4c0,0.3,0.1,1.1,0,1.2
				l-3.8,5.4l0.8,0.3l-0.4,0.6l-0.9-0.4L82.7,84.2z M96.3,83.4c0,0.5,0.3,1.2,0.9,1c0,0,0.1,0,0,0c-0.1,0.5-1.1,1-1.5,0.4
				c-0.4,0.8-0.3,1.6,0.5,2.1c0,0,0,0.1,0,0.1c-0.5,0.4-1.3,0.3-1.7-0.4c-0.7,0.5-0.6,1.6-0.2,2c0,0-1.9,1.1-3.7,0.3
				c-1.2-0.6-2.1-1.3-3.6-1.1c0.2-2.1,1.3-2.6,3.2-3c1.5-0.2,1.7-1,1.5-1.5c-0.5-0.1-1.5,0.3-1.5,0.3c-0.2-0.3,0.1-0.6,0.1-0.6
				c-0.1-0.1-0.1-0.5-0.1-0.5c1.1,0,1.3-0.2,1.3-0.2c0.2-1.1-0.9-1.2-1.8-0.6c-0.4-0.4-0.3-0.8-0.3-0.8c-0.1-0.1-0.2-0.2-0.2-0.3
				c0-0.3,1.3-1,1.6-1.1c0.1-0.4,0.5-0.9,1.9-0.8c0.2-0.4-0.1-1.7-0.3-2c0-0.1,0-0.2,0.1-0.1c0.5,0.3,0.9,1.4,1.3,1.4
				c0,0,1.5-0.8,1.6-0.8c0.1,0,0.3,1.7,0.3,1.7c0.2,0.2,1.4,0,1.9,0.2c0.1,0.1,0.1,0.2,0,0.2c-0.4,0.1-1.6,0.6-1.8,0.9
				C96.7,81.4,96.3,82.9,96.3,83.4z"/>
		</g>
	</g>
</g>
</svg>
